<svg width="264" height="176" viewBox="0 0 264 176" fill="none" xmlns="http://www.w3.org/2000/svg">
<g clip-path="url(#clip0_87_47)">
<path d="M133.74 49.4666C131.386 45.5579 128.597 41.3845 124.229 40.1082C119.17 38.6301 113.973 41.5663 109.565 44.4637C96.3827 53.129 83.6878 62.5197 71.5385 72.5927L71.5518 72.7445C81.0105 72.0896 90.4691 71.4347 99.9278 70.7798C106.762 70.3067 113.83 69.7683 119.87 66.5226C122.161 65.2909 124.395 63.6457 126.992 63.5311C130.218 63.3887 133.032 65.6509 135.242 68.0145C148.32 81.9956 152.104 103.376 166.776 115.66C157.524 92.7531 146.478 70.6193 133.74 49.4666Z" fill="#F2F2F2"/>
<path d="M214.125 168.052C212.679 166.219 212.088 165.789 210.662 163.939C199.047 148.857 188.129 133.265 177.91 117.164C170.969 106.229 164.371 95.0835 158.118 83.7283C155.141 78.3299 152.246 72.8891 149.432 67.4059C147.249 63.1544 145.114 58.8775 143.028 54.5751C142.432 53.3463 141.852 52.1118 141.275 50.8745C139.916 47.9648 138.583 45.041 137.15 42.1709C135.519 38.8996 133.532 35.4702 130.535 33.2724C129.172 32.2311 127.541 31.6011 125.834 31.456C123.394 31.2978 121.143 32.3091 119.027 33.4136C103.546 41.5183 89.0527 51.6796 75.9436 63.242C62.8009 74.8304 51.0535 87.9224 40.9408 102.251C40.6314 102.695 39.8998 102.271 40.2121 101.825C41.4417 100.079 42.6957 98.352 43.9741 96.6438C59.8696 75.4191 79.3599 57.167 101.554 42.7217C105.288 40.2923 109.092 37.9768 112.966 35.7753C114.919 34.6651 116.88 33.569 118.875 32.5407C120.831 31.5322 122.907 30.6254 125.141 30.5915C132.744 30.4729 136.681 39.1172 139.385 44.9337C140.234 46.7642 141.094 48.5891 141.965 50.4084C145.254 57.3153 148.67 64.1591 152.212 70.9399C154.399 75.1264 156.633 79.2885 158.915 83.426C166.016 96.3105 173.565 108.934 181.559 121.297C192.15 137.673 202.657 152.139 214.722 167.453C215.054 167.877 214.46 168.482 214.125 168.052Z" fill="#E4E4E4"/>
<path d="M75.1922 58.9731C74.7505 58.4788 74.3116 57.9844 73.867 57.49C70.3611 53.5973 66.5993 49.7498 61.7849 47.5181C59.4894 46.4204 56.9835 45.8372 54.441 45.809C51.8131 45.8175 49.2442 46.5096 46.816 47.4785C45.6679 47.939 44.5452 48.4616 43.4395 49.0181C42.1761 49.6565 40.9352 50.3374 39.7 51.0238C37.3815 52.312 35.093 53.6566 32.8346 55.0578C28.341 57.846 23.9882 60.847 19.7761 64.0608C17.5925 65.7275 15.4541 67.4488 13.3607 69.2248C11.4136 70.8745 9.50592 72.5685 7.63762 74.3068C7.23809 74.6769 6.64154 74.078 7.04107 73.7079C7.53347 73.2474 8.03151 72.7898 8.52955 72.3378C9.9364 71.061 11.3658 69.8086 12.8177 68.5807C15.4653 66.3377 18.1815 64.1813 20.9663 62.1116C25.2966 58.8912 29.776 55.8893 34.4045 53.1058C36.7175 51.7159 39.0622 50.3844 41.4388 49.1113C42.1564 48.7271 42.8824 48.3514 43.6167 47.9955C45.283 47.1516 47.0144 46.4441 48.7939 45.8796C51.3148 45.0609 53.9819 44.7978 56.6133 45.1084C59.154 45.4794 61.6018 46.3296 63.8277 47.6141C68.5547 50.2667 72.2209 54.3685 75.7888 58.3714C76.149 58.7782 75.5552 59.3799 75.1922 58.9731Z" fill="#E4E4E4"/>
<path d="M172.047 99.3126L183.374 95.1532L188.998 93.088C190.83 92.4154 192.657 91.6497 194.551 91.1681C196.196 90.6962 197.943 90.7185 199.576 91.2324C201.032 91.7735 202.365 92.6031 203.496 93.6719C204.651 94.7397 205.725 95.8919 206.711 97.119C207.935 98.5964 209.142 100.089 210.354 101.577C215.355 107.718 220.323 113.885 225.259 120.079C230.195 126.273 235.097 132.493 239.967 138.739C244.849 145.001 249.697 151.289 254.511 157.603C255.101 158.376 255.69 159.15 256.279 159.925C256.604 160.352 257.338 159.931 257.008 159.497C252.158 153.119 247.274 146.768 242.356 140.442C237.427 134.102 232.463 127.788 227.465 121.502C222.468 115.215 217.436 108.956 212.371 102.724C211.109 101.171 209.845 99.6203 208.579 98.0711C207.511 96.7643 206.455 95.4434 205.284 94.2271C203.133 91.9945 200.447 90.0215 197.232 89.968C195.341 89.9365 193.511 90.5388 191.755 91.1768C189.861 91.8646 187.972 92.5653 186.081 93.2597L174.674 97.4483L171.823 98.4954C171.317 98.6812 171.535 99.5005 172.047 99.3126L172.047 99.3126Z" fill="#E4E4E4"/>
<path d="M60.2942 52.4164C54.538 49.4462 47.1664 50.028 41.8769 53.7387C51.9663 55.4863 61.9453 57.8246 71.7628 60.7417C67.686 58.3431 64.4969 54.585 60.2942 52.4164Z" fill="#F2F2F2"/>
<path d="M41.8202 53.7285L40.7121 54.6328C41.0869 54.3163 41.4766 54.0196 41.8769 53.7387C41.858 53.7355 41.8391 53.7318 41.8202 53.7285Z" fill="#F2F2F2"/>
<path d="M203.069 99.3542C201.954 97.9915 200.749 96.5647 199.081 96.0112L197.524 96.0729C209.377 117.101 225.385 135.475 244.566 150.067C230.734 133.163 216.902 116.259 203.069 99.3542Z" fill="#F2F2F2"/>
<path d="M106.244 88.1128C106.964 90.7411 108.588 93.0289 110.826 94.5712C111.692 95.1629 112.716 95.7305 113.012 96.739C113.168 97.3818 113.072 98.0602 112.744 98.6341C112.417 99.2006 112.018 99.7227 111.559 100.188L111.517 100.345C109.369 99.0674 107.325 97.4508 106.139 95.2451C104.952 93.0394 104.787 90.1486 106.244 88.1128" fill="#F2F2F2"/>
<path d="M177.758 150.667C178.479 153.296 180.102 155.584 182.341 157.126C183.207 157.718 184.231 158.285 184.527 159.294C184.683 159.936 184.587 160.615 184.259 161.189C183.931 161.755 183.533 162.277 183.074 162.742L183.032 162.9C180.884 161.622 178.84 160.005 177.654 157.8C176.467 155.594 176.301 152.703 177.758 150.667" fill="#F2F2F2"/>
<path d="M35.0359 146.354C35.7565 148.982 37.3798 151.27 39.6187 152.812C40.4843 153.404 41.5084 153.971 41.8045 154.98C41.9603 155.623 41.8643 156.301 41.5364 156.875C41.209 157.441 40.8108 157.963 40.3513 158.428L40.3093 158.586C38.1613 157.308 36.1177 155.691 34.9312 153.486C33.7446 151.28 33.579 148.389 35.0359 146.354" fill="#F2F2F2"/>
<path d="M199.274 31.4314C207.919 31.4314 214.927 24.3953 214.927 15.7157C214.927 7.03617 207.919 0 199.274 0C190.629 0 183.62 7.03617 183.62 15.7157C183.62 24.3953 190.629 31.4314 199.274 31.4314Z" fill="url(#paint0_linear_87_47)"/>
<path d="M227.522 3.65782C219.936 2.6283 211.275 6.74509 209.309 14.173C208.813 12.8523 207.912 11.724 206.736 10.951C205.56 10.178 204.17 9.80041 202.766 9.87274C201.362 9.94506 200.017 10.4636 198.926 11.3534C197.835 12.2432 197.054 13.4582 196.696 14.8228L197.564 15.4474C213.822 18.977 230.65 18.9006 246.875 15.2235C241.598 9.65556 235.109 4.68731 227.522 3.65782Z" fill="#F0F0F0"/>
<path d="M194.988 24.6119C187.401 23.5824 178.74 27.6992 176.774 35.1271C176.279 33.8064 175.378 32.6781 174.202 31.9051C173.026 31.1321 171.635 30.7545 170.231 30.8268C168.827 30.8992 167.483 31.4177 166.392 32.3075C165.301 33.1973 164.52 34.4123 164.161 35.7769L165.03 36.4015C181.287 39.9311 198.116 39.8547 214.341 36.1776C209.064 30.6097 202.574 25.6414 194.988 24.6119Z" fill="#F0F0F0"/>
<path d="M261.201 28.5744C261.169 28.5744 261.138 28.5696 261.108 28.5599C179.954 2.79288 108.428 6.16237 62.7148 13.5264C56.4938 14.5282 50.2561 15.6853 44.1751 16.9657C42.6226 17.2922 41.012 17.6422 39.388 18.0066C37.4486 18.4403 35.5349 18.8869 33.6999 19.3334C32.9074 19.5218 32.1304 19.7117 31.3689 19.9031C30.2153 20.189 29.0449 20.4869 27.7902 20.8143C26.3882 21.1772 24.9637 21.5579 23.5553 21.9458C23.5502 21.9476 23.5449 21.9491 23.5396 21.9503L23.5398 21.9506C21.9491 22.3866 20.3668 22.8353 18.8366 23.2834C18.0084 23.5236 17.2087 23.7604 16.4428 23.9942C16.3572 24.018 16.2814 24.0409 16.2045 24.0643L16.0399 24.1146C15.9446 24.1438 15.8505 24.1724 15.7564 24.1995L15.7504 24.2013L15.7505 24.2016L15.5014 24.2792C15.2044 24.3695 14.9145 24.4577 14.6295 24.5455C7.09593 26.8771 2.95448 28.5359 2.91356 28.5521C2.87615 28.5672 2.83615 28.5747 2.79585 28.5742C2.75554 28.5737 2.71572 28.5653 2.67866 28.5494C2.6416 28.5335 2.60803 28.5104 2.57985 28.4815C2.55168 28.4525 2.52946 28.4183 2.51446 28.3807C2.49947 28.3432 2.49199 28.303 2.49245 28.2625C2.49291 28.2221 2.50131 28.1821 2.51716 28.1449C2.53301 28.1077 2.55601 28.074 2.58483 28.0457C2.61366 28.0174 2.64775 27.9951 2.68516 27.98C2.72638 27.9638 6.88807 26.2967 14.4491 23.9563C14.7352 23.8682 15.0258 23.78 15.3237 23.6894L15.5551 23.6172C15.563 23.6142 15.571 23.6118 15.5791 23.6094C15.6727 23.5826 15.7662 23.554 15.8613 23.5251L16.0261 23.4748C16.1082 23.4499 16.1892 23.4252 16.2721 23.4023C17.0328 23.17 17.8352 22.9326 18.6654 22.6915C20.1962 22.2431 21.78 21.7945 23.3719 21.3578C23.3769 21.356 23.382 21.3548 23.3869 21.3533V21.353C24.8002 20.9639 26.2299 20.5817 27.6364 20.2176C28.8931 19.8899 30.0658 19.5913 31.2213 19.3049C31.986 19.1138 32.7645 18.9235 33.5568 18.734C35.3939 18.2868 37.3114 17.8396 39.2543 17.4051C40.8809 17.0404 42.4942 16.6895 44.0492 16.3627C50.1397 15.0801 56.3871 13.9212 62.6176 12.9179C108.396 5.54338 180.025 2.16845 261.293 27.9725C261.363 27.9946 261.423 28.0412 261.461 28.1037C261.5 28.1661 261.515 28.2405 261.504 28.3132C261.493 28.3859 261.456 28.4522 261.401 28.5001C261.345 28.548 261.274 28.5744 261.201 28.5744Z" fill="#CCCCCC"/>
<path d="M80.7191 129.374C80.6128 129.062 80.4339 128.78 80.1973 128.552C80.11 128.47 80.0155 128.397 79.9149 128.333C79.1139 127.797 77.9168 127.677 77.1556 128.333C77.079 128.4 77.0081 128.473 76.9439 128.552C76.7167 128.832 76.4835 129.106 76.2441 129.374C75.8512 129.824 75.4491 130.259 75.0286 130.681C74.9089 130.798 74.7892 130.918 74.6664 131.035C74.5958 131.106 74.5253 131.174 74.4547 131.242C74.1846 131.501 73.9083 131.75 73.629 131.997C73.4817 132.129 73.3344 132.259 73.184 132.385C72.9599 132.573 72.7359 132.761 72.5087 132.943C72.4872 132.958 72.4658 132.974 72.4443 132.992C72.4381 132.995 72.4351 133.001 72.4289 133.004C72.4258 133.004 72.4228 133.004 72.4197 133.011C72.4114 133.014 72.404 133.019 72.3982 133.026C72.3307 133.072 72.2847 133.103 72.2509 133.131C72.2632 133.125 72.2755 133.115 72.2877 133.109C72.2325 133.152 72.1742 133.196 72.1189 133.239C71.5818 133.636 71.0324 134.018 70.4707 134.376C69.081 135.269 67.6214 136.047 66.1062 136.702C66.0049 136.742 65.9005 136.785 65.7962 136.826C61.829 138.457 57.5255 139.094 53.2581 138.681C52.8222 138.647 52.3864 138.6 51.9506 138.542C51.4472 138.468 50.9469 138.379 50.4497 138.277C48.5567 137.898 46.7045 137.336 44.9188 136.601C42.685 135.574 40.5604 134.322 38.5776 132.866C38.2707 132.647 37.9607 132.428 37.6507 132.216C38.0037 131.347 38.3505 130.478 38.6881 129.602C38.8569 129.18 39.0196 128.758 39.1792 128.333C40.4346 125.057 41.6132 121.751 42.7427 118.432C43.8844 115.07 44.9618 111.689 45.9746 108.288C46.079 107.943 46.1803 107.597 46.2785 107.252C46.8095 105.456 47.319 103.655 47.807 101.85C47.853 101.675 47.9022 101.502 47.9451 101.327C48.0863 100.809 48.2244 100.291 48.3595 99.7734C48.6664 98.6055 47.9727 97.2096 46.7512 96.9292C46.163 96.7778 45.5393 96.8615 45.0114 97.1627C44.4835 97.4639 44.0927 97.9591 43.9213 98.5439C43.7893 99.0431 43.6573 99.5392 43.5223 100.038C42.8746 102.451 42.1933 104.856 41.4781 107.252C41.3738 107.597 41.2694 107.943 41.165 108.288C39.5874 113.508 37.8553 118.675 35.9687 123.791C35.7416 124.41 35.5114 125.027 35.2781 125.643C35.1646 125.945 35.051 126.247 34.9344 126.549C34.7103 127.143 34.4801 127.738 34.2499 128.333C34.1179 128.681 33.9829 129.029 33.8478 129.374C33.7588 129.593 33.6729 129.812 33.5869 130.028C32.7118 129.712 31.8052 129.493 30.8829 129.374L30.7356 129.356C30.0205 129.27 29.2974 129.276 28.584 129.374C27.5162 129.5 26.4888 129.859 25.5745 130.426C24.6601 130.994 23.8811 131.756 23.2925 132.659C21.8285 134.974 21.8469 138.283 23.9002 140.249C26.015 142.274 29.2163 142.258 31.7055 140.992C33.0246 140.275 34.1368 139.229 34.9344 137.953C35.2399 137.491 35.5206 137.013 35.7754 136.52C35.8398 136.564 35.9043 136.607 35.9687 136.653C36.2143 136.826 36.4598 137.001 36.7023 137.174C38.1151 138.201 39.6039 139.119 41.1558 139.919C44.4928 141.585 48.0848 142.676 51.7817 143.146C51.8646 143.155 51.9444 143.167 52.0273 143.177C52.4355 143.229 52.8468 143.269 53.2581 143.303C59.1579 143.749 65.065 142.537 70.3172 139.802C70.7623 139.571 71.2032 139.329 71.6401 139.075C72.3184 138.681 72.9814 138.262 73.629 137.818C73.982 137.577 74.3257 137.334 74.6664 137.078C76.1552 135.977 77.543 134.745 78.8131 133.396C79.2949 132.887 79.7563 132.362 80.1973 131.821C80.6143 131.378 80.8546 130.797 80.8726 130.188C80.8702 129.91 80.8182 129.634 80.7191 129.374ZM29.8946 136.715C29.959 136.668 30.0235 136.619 30.0849 136.57C30.0665 136.616 29.9774 136.668 29.8946 136.715H29.8946ZM30.8798 135.719C30.8092 135.799 30.7448 135.88 30.6742 135.96C30.4594 136.201 30.2287 136.427 29.9836 136.638C29.9498 136.668 29.913 136.699 29.8762 136.727C29.8758 136.727 29.8754 136.727 29.875 136.727C29.8746 136.727 29.8743 136.728 29.874 136.728C29.8737 136.728 29.8735 136.728 29.8733 136.729C29.8732 136.729 29.8731 136.73 29.8731 136.73C29.8288 136.75 29.7857 136.773 29.7442 136.798C29.6122 136.878 29.4771 136.952 29.339 137.02C29.0686 137.12 28.7904 137.197 28.5073 137.251C28.2897 137.267 28.0713 137.269 27.8535 137.257H27.8474C27.697 137.223 27.5485 137.182 27.4023 137.134C27.3286 137.097 27.2581 137.054 27.1875 137.01C27.1598 136.986 27.1353 136.961 27.1199 136.946C27.0899 136.918 27.0622 136.888 27.0371 136.856C27.0371 136.856 27.037 136.856 27.0369 136.855C27.0367 136.855 27.0365 136.854 27.0362 136.854C27.0359 136.854 27.0356 136.854 27.0352 136.853C27.0348 136.853 27.0344 136.853 27.034 136.853C27.0002 136.792 26.9634 136.73 26.9297 136.668C26.9279 136.667 26.9268 136.665 26.9266 136.662C26.902 136.585 26.8805 136.505 26.8621 136.425C26.8555 136.284 26.8565 136.143 26.8652 136.003C26.9064 135.806 26.9618 135.612 27.0309 135.423C27.0931 135.29 27.1638 135.16 27.2427 135.035C27.2489 135.023 27.2796 134.974 27.3133 134.918C27.3164 134.915 27.3164 134.915 27.3164 134.912C27.3624 134.86 27.4085 134.804 27.4576 134.755C27.5404 134.662 27.6295 134.582 27.7185 134.499C27.8916 134.385 28.0709 134.281 28.2556 134.188C28.5486 134.083 28.8493 134.002 29.1549 133.944C29.6056 133.908 30.0585 133.912 30.5085 133.957C30.9346 134.031 31.3551 134.135 31.7669 134.268C31.5173 134.754 31.2332 135.222 30.9167 135.667C30.9044 135.685 30.8921 135.704 30.8798 135.719ZM27.4668 134.705C27.4397 134.749 27.4078 134.789 27.3716 134.826C27.396 134.78 27.4282 134.74 27.4668 134.705Z" fill="url(#paint1_linear_87_47)"/>
<path d="M71.4928 97.9029C71.4652 98.8705 71.4376 99.8381 71.4099 100.806C71.3516 102.954 71.2913 105.102 71.2289 107.252C71.1644 109.671 71.0969 112.089 71.0263 114.506C70.9925 115.754 70.9577 117.002 70.9219 118.25C70.8268 121.612 70.7327 124.973 70.6396 128.333C70.6303 128.681 70.6181 129.026 70.6089 129.374C70.5628 131.042 70.5168 132.709 70.4707 134.376C70.4186 136.185 70.3674 137.993 70.3173 139.802C70.2804 141.158 70.2426 142.515 70.2037 143.873C69.9275 153.712 69.6513 163.551 69.375 173.391C69.3633 174 69.1171 174.581 68.6879 175.012C68.2587 175.443 67.6799 175.69 67.073 175.702C66.464 175.697 65.8814 175.452 65.4507 175.02C65.0201 174.587 64.776 174.002 64.7711 173.391C64.9245 167.856 65.08 162.322 65.2376 156.788C65.3757 151.783 65.5159 146.779 65.6581 141.774C65.7041 140.126 65.7502 138.476 65.7962 136.826C65.8668 134.342 65.9364 131.858 66.0049 129.374C66.0141 129.026 66.0264 128.681 66.0356 128.333C66.0417 128.028 66.0509 127.726 66.0602 127.421C66.1952 122.598 66.3303 117.775 66.4653 112.95C66.5206 111.052 66.5738 109.153 66.6249 107.252C66.6863 105.086 66.7477 102.921 66.8091 100.756C66.8367 99.8042 66.8613 98.8551 66.8889 97.9029C66.9005 97.2936 67.1468 96.7126 67.576 96.2817C68.0052 95.8508 68.584 95.6035 69.1908 95.5918C69.7998 95.5967 70.3825 95.8418 70.8132 96.2742C71.2438 96.7065 71.4879 97.2915 71.4928 97.9029Z" fill="url(#paint2_linear_87_47)"/>
<path d="M197.772 98.5439C195.358 107.721 192.473 116.766 189.129 125.643C188.206 128.092 187.262 130.536 186.252 132.95L186.485 132.398C186.034 133.548 185.459 134.644 184.769 135.668C184.722 135.734 184.674 135.799 184.626 135.864C184.864 135.558 184.909 135.497 184.762 135.683C184.684 135.775 184.607 135.868 184.526 135.958C184.311 136.2 184.081 136.427 183.836 136.637C183.774 136.69 183.711 136.742 183.648 136.793L183.936 136.568C183.902 136.647 183.668 136.752 183.595 136.797C183.358 136.94 183.112 137.066 182.857 137.173L183.407 136.94C182.989 137.109 182.553 137.229 182.108 137.297L182.72 137.215C182.283 137.275 181.839 137.28 181.401 137.229L182.013 137.311C181.654 137.262 181.303 137.167 180.968 137.029L181.518 137.262C181.339 137.184 181.166 137.091 181.002 136.986C180.919 136.931 180.663 136.737 180.998 136.993C181.346 137.26 181.042 137.016 180.971 136.945C180.911 136.886 180.857 136.822 180.799 136.762C180.528 136.483 181.105 137.242 180.921 136.916C180.822 136.752 180.732 136.584 180.651 136.411L180.883 136.963C180.778 136.7 180.703 136.426 180.66 136.146L180.742 136.761C180.698 136.412 180.698 136.06 180.741 135.711L180.659 136.326C180.715 135.937 180.818 135.556 180.964 135.192L180.732 135.744C180.834 135.499 180.955 135.262 181.094 135.036C181.158 134.919 181.232 134.808 181.317 134.705C181.332 134.71 180.928 135.172 181.143 134.939C181.199 134.878 181.251 134.814 181.308 134.753C181.399 134.656 181.496 134.568 181.592 134.476C181.913 134.17 181.143 134.774 181.513 134.532C181.782 134.355 182.064 134.2 182.357 134.07L181.807 134.303C182.299 134.1 182.814 133.961 183.34 133.89L182.729 133.972C183.388 133.896 184.054 133.904 184.712 133.996L184.1 133.913C184.932 134.04 185.746 134.27 186.522 134.597L185.972 134.364C187.626 135.077 189.091 136.136 190.554 137.174C191.966 138.201 193.455 139.119 195.006 139.919C198.343 141.584 201.935 142.676 205.633 143.146C210.935 143.798 216.316 143.103 221.281 141.124C226.246 139.146 230.637 135.947 234.05 131.821C234.466 131.378 234.706 130.796 234.724 130.187C234.72 129.575 234.478 128.988 234.05 128.553C233.205 127.774 231.61 127.554 230.794 128.553C230.022 129.5 229.191 130.398 228.306 131.242C227.894 131.635 227.47 132.016 227.035 132.385C226.787 132.596 226.535 132.802 226.28 133.005C226.159 133.101 225.783 133.355 226.36 132.944C226.228 133.038 226.101 133.141 225.97 133.238C224.037 134.669 221.943 135.865 219.73 136.802L220.28 136.569C217.905 137.569 215.411 138.255 212.861 138.61L213.473 138.527C210.849 138.873 208.191 138.87 205.568 138.515L206.18 138.598C203.558 138.236 200.994 137.535 198.551 136.512L199.101 136.745C196.744 135.697 194.507 134.396 192.429 132.865C191.348 132.061 190.208 131.34 189.018 130.709C187.633 129.999 186.132 129.541 184.587 129.357C181.69 129.015 178.738 130.148 177.145 132.66C175.679 134.973 175.698 138.282 177.751 140.249C179.865 142.274 183.066 142.257 185.558 140.99C187.957 139.77 189.398 137.235 190.412 134.845C192.693 129.466 194.712 123.963 196.593 118.432C198.455 112.96 200.143 107.432 201.657 101.849C201.845 101.158 202.03 100.466 202.212 99.7727C202.519 98.6052 201.825 97.2089 200.604 96.9297C200.016 96.7777 199.392 96.861 198.863 97.1622C198.335 97.4633 197.944 97.9587 197.772 98.5439Z" fill="url(#paint3_linear_87_47)"/>
<path d="M220.741 97.9024L219.912 127.421L219.088 156.786L218.622 173.391C218.627 174.002 218.871 174.587 219.302 175.019C219.732 175.451 220.315 175.696 220.924 175.702C221.531 175.69 222.109 175.443 222.539 175.012C222.968 174.581 223.214 174 223.226 173.391L224.054 143.872L224.879 114.507L225.345 97.9024C225.34 97.2911 225.095 96.7063 224.665 96.274C224.234 95.8417 223.652 95.5965 223.043 95.5913C222.436 95.6031 221.857 95.8504 221.428 96.2813C220.999 96.7121 220.752 97.2932 220.741 97.9024Z" fill="url(#paint4_linear_87_47)"/>
<path opacity="0.2" d="M141.062 165.149H141.777V132.472H158.452V131.757H141.777V117.969H154.655C154.466 117.728 154.271 117.49 154.072 117.255H141.777V108.148C141.541 108.047 141.302 107.949 141.062 107.857V117.255H127.05V105.586C126.81 105.597 126.574 105.614 126.336 105.634V117.255H115.157V108.549C114.917 108.656 114.681 108.768 114.446 108.886V117.255H105.049V117.969H114.446V131.757H105.049V132.472H114.446V165.149H115.157V132.472C116.625 132.472 118.079 132.762 119.435 133.326C120.792 133.89 122.024 134.717 123.062 135.759C124.1 136.801 124.924 138.038 125.485 139.4C126.047 140.762 126.336 142.221 126.336 143.695V165.149H127.05V132.472H141.062V165.149ZM115.157 131.757V117.969H126.336V131.757H115.157ZM127.05 131.757V117.969H127.331C129.134 117.969 130.92 118.325 132.586 119.018C134.252 119.711 135.766 120.727 137.041 122.007C138.316 123.288 139.327 124.808 140.017 126.48C140.707 128.153 141.062 129.946 141.062 131.757H127.05Z" fill="black"/>
<path d="M136.697 155.351C135.797 159.381 133.642 163.019 130.543 165.736C130.316 165.933 130.089 166.124 129.852 166.312C129.279 166.365 128.709 166.418 128.143 166.472C127.673 166.516 127.21 166.562 126.749 166.605L126.667 166.614L126.608 166.109L126.375 164.063C125.47 162.579 124.909 160.911 124.734 159.18C124.558 157.45 124.773 155.702 125.362 154.066C126.172 151.872 127.639 149.934 129.082 148.011C131.074 145.355 133.011 142.729 133.081 139.491C134.062 140.75 134.876 142.131 135.506 143.598C134.912 143.879 134.378 144.274 133.935 144.76C133.809 144.899 133.683 145.093 133.769 145.259C133.843 145.401 134.027 145.435 134.186 145.453C134.57 145.493 134.957 145.534 135.34 145.574C135.647 145.608 135.954 145.638 136.261 145.672C136.633 146.896 136.884 148.153 137.013 149.426C137.22 151.405 137.113 153.405 136.697 155.351Z" fill="url(#paint5_linear_87_47)"/>
<path d="M146.887 147.275C145.076 148.597 144.017 150.498 143.195 152.593C142.352 152.864 141.593 153.351 140.994 154.005C140.868 154.143 140.742 154.338 140.828 154.504C140.902 154.646 141.086 154.68 141.246 154.698C141.629 154.738 142.016 154.778 142.4 154.818C141.577 157.296 140.822 159.86 139.367 161.952C138.4 163.333 137.139 164.482 135.675 165.314C135.276 165.542 134.864 165.747 134.441 165.927C132.882 166.047 131.352 166.176 129.852 166.312C129.278 166.365 128.709 166.418 128.143 166.473C127.673 166.516 127.21 166.562 126.749 166.605C126.746 166.436 126.746 166.266 126.749 166.097C126.846 161.582 128.501 157.241 131.43 153.814C131.568 153.654 131.709 153.496 131.854 153.339C133.338 151.748 135.083 150.424 137.013 149.426C140.055 147.838 143.464 147.095 146.887 147.275Z" fill="url(#paint6_linear_87_47)"/>
<path d="M128.674 164.892L128.321 165.94L128.143 166.473C127.673 166.516 127.21 166.562 126.749 166.605L126.667 166.614C126.157 166.667 125.651 166.719 125.144 166.772C125.012 166.617 124.88 166.46 124.751 166.3C121.548 162.405 120.01 157.395 120.474 152.366C120.938 147.336 123.366 142.695 127.228 139.457C126.823 141.586 127.296 143.626 128.072 145.651C127.989 145.685 127.91 145.719 127.833 145.756C127.239 146.036 126.705 146.431 126.261 146.917C126.136 147.056 126.01 147.25 126.096 147.417C126.169 147.558 126.353 147.592 126.513 147.611C126.897 147.651 127.283 147.691 127.667 147.731C127.974 147.765 128.281 147.796 128.588 147.829C128.732 147.845 128.876 147.86 129.021 147.876C129.042 147.922 129.061 147.965 129.082 148.011C129.957 149.916 130.899 151.829 131.43 153.814C131.563 154.312 131.668 154.817 131.743 155.327C131.98 157.05 131.826 158.805 131.295 160.461C130.764 162.117 129.868 163.631 128.674 164.892Z" fill="url(#paint7_linear_87_47)"/>
<path d="M159.569 120.198C156.927 115.023 152.833 110.669 148.018 107.47C143.188 104.275 137.646 102.329 131.885 101.806C131.13 101.737 130.373 101.697 129.614 101.685C128.718 101.672 115.23 105.578 110.711 108.767C106.196 111.918 102.481 116.09 99.8667 120.947C97.2572 125.831 95.9737 131.319 96.145 136.858C96.3687 142.431 97.9159 147.87 100.658 152.721C103.362 157.556 107.202 161.654 111.844 164.66C116.551 167.676 121.28 175.672 126.838 175.954C132.439 176.239 138.825 168.696 143.933 166.406C149.041 164.096 153.456 160.483 156.74 155.927C159.93 151.462 161.995 146.286 162.755 140.844C163.545 135.271 163.177 129.524 161.282 124.199C160.795 122.83 160.223 121.494 159.569 120.198C159.023 119.118 157.422 118.72 156.419 119.369C155.903 119.688 155.529 120.195 155.375 120.783C155.221 121.372 155.3 121.998 155.593 122.531C155.914 123.165 156.212 123.81 156.488 124.465L156.256 123.913C157.3 126.432 158.009 129.078 158.367 131.783L158.285 131.168C158.665 134.102 158.658 137.074 158.264 140.007L158.347 139.392C157.949 142.325 157.169 145.192 156.028 147.92L156.26 147.368C155.673 148.76 154.988 150.109 154.212 151.404C153.819 152.059 153.401 152.698 152.96 153.322C152.766 153.595 152.566 153.864 152.365 154.132C152.102 154.482 152.723 153.675 152.451 154.019C152.405 154.077 152.359 154.136 152.312 154.194C152.173 154.369 152.032 154.542 151.888 154.714C150.931 155.86 149.887 156.93 148.765 157.914C148.485 158.159 148.201 158.398 147.912 158.632C147.768 158.749 147.626 158.87 147.476 158.979C147.482 158.975 147.961 158.609 147.677 158.821C147.588 158.888 147.5 158.956 147.411 159.022C146.815 159.465 146.204 159.885 145.577 160.283C144.133 161.196 142.619 161.991 141.048 162.66L141.598 162.427C138.888 163.572 136.04 164.354 133.128 164.754L133.739 164.671C130.828 165.066 127.877 165.072 124.965 164.687L125.577 164.769C122.929 164.413 120.34 163.71 117.874 162.679L118.424 162.912C116.996 162.306 115.619 161.586 114.306 160.758C113.657 160.347 113.024 159.91 112.408 159.449C112.32 159.383 112.233 159.316 112.146 159.25C111.865 159.037 112.348 159.407 112.352 159.409C112.188 159.292 112.031 159.166 111.88 159.032C111.583 158.789 111.29 158.54 111.002 158.286C109.849 157.266 108.773 156.163 107.782 154.986C107.533 154.691 107.29 154.392 107.053 154.089C106.95 153.957 106.762 153.691 107.177 154.252C107.122 154.178 107.066 154.106 107.011 154.032C106.878 153.856 106.748 153.679 106.619 153.5C106.168 152.874 105.74 152.232 105.334 151.575C104.416 150.088 103.615 148.531 102.938 146.919L103.17 147.471C102.062 144.826 101.305 142.045 100.917 139.202L100.999 139.816C100.649 137.195 100.644 134.539 100.984 131.916L100.902 132.531C101.251 129.991 101.931 127.509 102.926 125.148L102.694 125.7C103.32 124.222 104.059 122.794 104.903 121.43C105.325 120.747 105.773 120.081 106.246 119.432C106.354 119.284 106.462 119.137 106.572 118.992C106.672 118.86 106.945 118.531 106.479 119.111C106.524 119.054 106.568 118.996 106.614 118.939C106.873 118.608 107.139 118.283 107.411 117.963C108.442 116.752 109.558 115.617 110.752 114.567C111.053 114.302 111.36 114.042 111.671 113.788C111.812 113.672 111.955 113.558 112.098 113.445C112.155 113.4 112.213 113.355 112.27 113.31C111.657 113.8 112.1 113.443 112.239 113.339C112.88 112.856 113.539 112.398 114.214 111.964C115.716 111 117.296 110.164 118.937 109.465L118.387 109.698C120.769 108.694 131.321 106.324 133.241 106.583L132.629 106.5C135.45 106.896 138.207 107.661 140.83 108.775L140.28 108.542C141.609 109.109 142.901 109.76 144.147 110.493C144.77 110.859 145.381 111.246 145.979 111.652C146.262 111.844 146.542 112.041 146.819 112.242C146.958 112.343 147.095 112.444 147.232 112.547C147.309 112.604 147.384 112.662 147.46 112.719C147.779 112.959 147.021 112.371 147.355 112.637C148.474 113.519 149.537 114.472 150.537 115.488C151.028 115.99 151.503 116.509 151.96 117.043C152.195 117.317 152.425 117.595 152.65 117.877C152.762 118.017 153.142 118.525 152.676 117.903C152.79 118.055 152.905 118.206 153.018 118.359C153.988 119.677 154.849 121.072 155.593 122.531C156.144 123.608 157.738 124.01 158.743 123.36C159.26 123.041 159.634 122.534 159.787 121.945C159.941 121.356 159.863 120.73 159.569 120.198Z" fill="url(#paint8_linear_87_47)"/>
<path d="M132.746 157.914C132.509 157.925 132.273 157.862 132.072 157.735C131.871 157.607 131.714 157.42 131.623 157.2C131.531 156.979 131.509 156.736 131.559 156.503C131.61 156.269 131.731 156.057 131.905 155.895C131.935 155.778 131.956 155.695 131.985 155.578C131.974 155.553 131.964 155.527 131.953 155.502C130.885 152.945 124.07 160.073 123.775 162.476C123.645 163.538 123.7 164.615 123.937 165.658C121.729 160.823 120.583 155.568 120.576 150.25C120.575 148.915 120.649 147.582 120.797 146.255C120.919 145.168 121.088 144.088 121.305 143.016C122.489 137.2 125.029 131.749 128.718 127.111C130.828 127.229 132.677 126.906 132.855 122.801C132.887 122.071 133.427 121.439 133.546 120.719C133.344 120.746 133.139 120.762 132.938 120.775C132.875 120.779 132.809 120.782 132.746 120.785L132.723 120.786C132.501 120.796 132.282 120.742 132.091 120.63C131.899 120.517 131.745 120.352 131.645 120.153C131.545 119.954 131.505 119.731 131.528 119.51C131.552 119.289 131.639 119.079 131.779 118.906C131.866 118.799 131.953 118.692 132.04 118.584C132.172 118.418 132.307 118.256 132.439 118.09C132.455 118.075 132.469 118.058 132.482 118.041C132.634 117.852 132.786 117.666 132.938 117.477C132.661 117.045 132.288 116.683 131.848 116.42C130.326 115.524 128.226 116.144 127.127 117.527C126.024 118.909 125.816 120.848 126.199 122.576C126.575 124.045 127.198 125.44 128.041 126.7C127.959 126.806 127.873 126.908 127.79 127.014C126.281 128.963 124.966 131.054 123.864 133.26C124.175 130.814 120.361 121.979 118.886 120.108C117.114 117.86 113.48 118.841 113.168 121.691C113.165 121.718 113.162 121.746 113.159 121.773C113.379 121.897 113.593 122.029 113.803 122.168C114.067 122.345 114.271 122.598 114.389 122.893C114.507 123.189 114.534 123.513 114.465 123.824C114.396 124.135 114.236 124.417 114.005 124.635C113.773 124.853 113.482 124.995 113.168 125.044L113.136 125.049C110.203 129.253 119.606 140.196 121.959 137.739C120.851 140.89 120.157 144.173 119.892 147.505C119.742 149.47 119.751 151.445 119.918 153.409L119.909 153.339C119.386 149.062 110.415 142.701 107.795 143.231C106.286 143.536 104.8 143.467 105.029 144.995C105.033 145.02 105.036 145.044 105.04 145.068C105.447 145.235 105.842 145.426 106.225 145.642C106.444 145.766 106.659 145.898 106.869 146.037C107.132 146.214 107.337 146.467 107.455 146.762C107.573 147.057 107.6 147.382 107.531 147.692C107.462 148.003 107.302 148.286 107.071 148.504C106.839 148.721 106.548 148.864 106.234 148.912L106.202 148.917C106.179 148.92 106.159 148.924 106.136 148.927C104.801 153.539 114.702 160.982 120.721 158.614H120.724C121.321 161.216 122.185 163.749 123.303 166.172H132.515C132.548 166.069 132.578 165.963 132.608 165.86C131.755 165.914 130.899 165.863 130.059 165.708C130.742 164.866 131.426 164.017 132.109 163.175C132.124 163.159 132.139 163.143 132.152 163.125C132.499 162.695 132.849 162.267 133.196 161.836L133.196 161.835C133.214 160.514 133.063 159.197 132.746 157.914L132.746 157.914ZM122.197 137.079L122.202 137.072L122.197 137.086V137.079ZM120.156 155.547L120.077 155.368C120.08 155.239 120.08 155.11 120.077 154.977C120.077 154.941 120.07 154.904 120.07 154.868C120.1 155.096 120.126 155.325 120.159 155.554L120.156 155.547Z" fill="url(#paint9_linear_87_47)"/>
<path d="M29.2347 138.668C31.0993 138.668 32.6109 137.15 32.6109 135.278C32.6109 133.406 31.0993 131.889 29.2347 131.889C27.37 131.889 25.8585 133.406 25.8585 135.278C25.8585 137.15 27.37 138.668 29.2347 138.668Z" fill="url(#paint10_linear_87_47)"/>
<path d="M69.7495 175.646C71.6141 175.646 73.1257 174.128 73.1257 172.256C73.1257 170.384 71.6141 168.867 69.7495 168.867C67.8848 168.867 66.3732 170.384 66.3732 172.256C66.3732 174.128 67.8848 175.646 69.7495 175.646Z" fill="url(#paint11_linear_87_47)"/>
<path d="M223.521 175.646C225.386 175.646 226.897 174.128 226.897 172.256C226.897 170.384 225.386 168.867 223.521 168.867C221.657 168.867 220.145 170.384 220.145 172.256C220.145 174.128 221.657 175.646 223.521 175.646Z" fill="url(#paint12_linear_87_47)"/>
<path d="M231.808 132.505C233.673 132.505 235.185 130.987 235.185 129.115C235.185 127.243 233.673 125.726 231.808 125.726C229.944 125.726 228.432 127.243 228.432 129.115C228.432 130.987 229.944 132.505 231.808 132.505Z" fill="url(#paint13_linear_87_47)"/>
<path d="M221.987 101.074C223.851 101.074 225.363 99.5562 225.363 97.6841C225.363 95.812 223.851 94.2944 221.987 94.2944C220.122 94.2944 218.61 95.812 218.61 97.6841C218.61 99.5562 220.122 101.074 221.987 101.074Z" fill="url(#paint14_linear_87_47)"/>
<path d="M81.1059 129.115C81.1038 129.981 80.7703 130.813 80.1744 131.439C79.5784 132.065 78.7656 132.437 77.9041 132.478C77.0427 132.518 76.1985 132.225 75.5464 131.659C74.8942 131.092 74.4839 130.296 74.4005 129.434C74.317 128.572 74.5668 127.711 75.098 127.029C75.6293 126.347 76.4014 125.896 77.2546 125.77C78.1077 125.643 78.9767 125.851 79.6815 126.35C80.3864 126.849 80.8733 127.6 81.0414 128.45C81.0847 128.669 81.1063 128.892 81.1059 129.115Z" fill="url(#paint15_linear_87_47)"/>
<path d="M148.63 110.935C150.495 110.935 152.007 109.417 152.007 107.545C152.007 105.673 150.495 104.155 148.63 104.155C146.766 104.155 145.254 105.673 145.254 107.545C145.254 109.417 146.766 110.935 148.63 110.935Z" fill="url(#paint16_linear_87_47)"/>
<path d="M115.175 107.545C115.173 108.411 114.84 109.243 114.244 109.869C113.648 110.494 112.835 110.866 111.973 110.907C111.112 110.948 110.268 110.655 109.616 110.088C108.963 109.522 108.553 108.725 108.47 107.864C108.386 107.002 108.636 106.141 109.167 105.459C109.698 104.777 110.471 104.326 111.324 104.199C112.177 104.073 113.046 104.281 113.751 104.779C114.456 105.278 114.943 106.03 115.111 106.879C115.154 107.099 115.176 107.322 115.175 107.545Z" fill="url(#paint17_linear_87_47)"/>
<path d="M71.591 97.6841C71.589 98.55 71.2555 99.3819 70.6595 100.008C70.0636 100.634 69.2508 101.005 68.3893 101.046C67.5278 101.087 66.6837 100.794 66.0315 100.228C65.3794 99.6611 64.9691 98.8645 64.8857 98.0027C64.8022 97.1409 65.0519 96.2799 65.5832 95.5978C66.1145 94.9158 66.8866 94.4649 67.7397 94.3384C68.5929 94.212 69.4618 94.4197 70.1667 94.9186C70.8716 95.4174 71.3585 96.1693 71.5266 97.0185C71.5699 97.2377 71.5915 97.4607 71.591 97.6841Z" fill="url(#paint18_linear_87_47)"/>
<path d="M183.927 139.901C185.792 139.901 187.304 138.383 187.304 136.511C187.304 134.639 185.792 133.122 183.927 133.122C182.063 133.122 180.551 134.639 180.551 136.511C180.551 138.383 182.063 139.901 183.927 139.901Z" fill="url(#paint19_linear_87_47)"/>
<path d="M130.828 109.085C133.541 109.085 135.739 106.878 135.739 104.155C135.739 101.432 133.541 99.2246 130.828 99.2246C128.116 99.2246 125.918 101.432 125.918 104.155C125.918 106.878 128.116 109.085 130.828 109.085Z" fill="url(#paint20_linear_87_47)"/>
<path d="M263.635 175.905L0.365453 176C0.317461 176 0.269937 175.99 0.225598 175.972C0.181259 175.954 0.140974 175.926 0.107039 175.892C0.0731029 175.858 0.0461804 175.818 0.0278146 175.773C0.00944873 175.729 0 175.681 0 175.633C0 175.585 0.00944873 175.537 0.0278146 175.493C0.0461804 175.448 0.0731029 175.408 0.107039 175.374C0.140974 175.339 0.181259 175.312 0.225598 175.294C0.269937 175.276 0.317461 175.266 0.365453 175.266L263.635 175.171C263.731 175.172 263.824 175.21 263.892 175.279C263.961 175.348 263.999 175.441 263.999 175.538C263.999 175.635 263.961 175.729 263.892 175.797C263.824 175.866 263.731 175.905 263.635 175.905Z" fill="#CACACA"/>
</g>
<defs>
<linearGradient id="paint0_linear_87_47" x1="199.274" y1="0" x2="199.274" y2="31.4314" gradientUnits="userSpaceOnUse">
<stop stop-color="#65AFF4"/>
<stop offset="1" stop-color="#0557A2"/>
</linearGradient>
<linearGradient id="paint1_linear_87_47" x1="51.5697" y1="96.8555" x2="51.5697" y2="143.393" gradientUnits="userSpaceOnUse">
<stop stop-color="#0557A2"/>
<stop offset="1" stop-color="#65AFF4"/>
</linearGradient>
<linearGradient id="paint2_linear_87_47" x1="68.1319" y1="95.5918" x2="68.1319" y2="175.702" gradientUnits="userSpaceOnUse">
<stop stop-color="#0557A2"/>
<stop offset="1" stop-color="#65AFF4"/>
</linearGradient>
<linearGradient id="paint3_linear_87_47" x1="205.421" y1="96.8555" x2="205.421" y2="143.384" gradientUnits="userSpaceOnUse">
<stop stop-color="#0557A2"/>
<stop offset="1" stop-color="#65AFF4"/>
</linearGradient>
<linearGradient id="paint4_linear_87_47" x1="221.983" y1="95.5913" x2="221.983" y2="175.702" gradientUnits="userSpaceOnUse">
<stop stop-color="#0557A2"/>
<stop offset="1" stop-color="#65AFF4"/>
</linearGradient>
<linearGradient id="paint5_linear_87_47" x1="130.895" y1="139.491" x2="130.895" y2="166.614" gradientUnits="userSpaceOnUse">
<stop stop-color="#0557A2"/>
<stop offset="1" stop-color="#65AFF4"/>
</linearGradient>
<linearGradient id="paint6_linear_87_47" x1="136.817" y1="147.249" x2="136.817" y2="166.605" gradientUnits="userSpaceOnUse">
<stop stop-color="#65AFF4"/>
<stop offset="1" stop-color="#0557A2"/>
</linearGradient>
<linearGradient id="paint7_linear_87_47" x1="126.122" y1="139.457" x2="126.122" y2="166.772" gradientUnits="userSpaceOnUse">
<stop stop-color="#65AFF4"/>
<stop offset="1" stop-color="#0557A2"/>
</linearGradient>
<linearGradient id="paint8_linear_87_47" x1="129.638" y1="101.685" x2="129.638" y2="175.962" gradientUnits="userSpaceOnUse">
<stop stop-color="#0557A2"/>
<stop offset="1" stop-color="#65AFF4"/>
</linearGradient>
<linearGradient id="paint9_linear_87_47" x1="119.275" y1="116.001" x2="119.275" y2="166.172" gradientUnits="userSpaceOnUse">
<stop stop-color="#0557A2"/>
<stop offset="1" stop-color="#65AFF4"/>
</linearGradient>
<linearGradient id="paint10_linear_87_47" x1="29.2347" y1="131.889" x2="29.2347" y2="138.668" gradientUnits="userSpaceOnUse">
<stop stop-color="#0557A2"/>
<stop offset="1" stop-color="#65AFF4"/>
</linearGradient>
<linearGradient id="paint11_linear_87_47" x1="69.7495" y1="168.867" x2="69.7495" y2="175.646" gradientUnits="userSpaceOnUse">
<stop stop-color="#0557A2"/>
<stop offset="1" stop-color="#65AFF4"/>
</linearGradient>
<linearGradient id="paint12_linear_87_47" x1="223.521" y1="168.867" x2="223.521" y2="175.646" gradientUnits="userSpaceOnUse">
<stop stop-color="#0557A2"/>
<stop offset="1" stop-color="#65AFF4"/>
</linearGradient>
<linearGradient id="paint13_linear_87_47" x1="231.808" y1="125.726" x2="231.808" y2="132.505" gradientUnits="userSpaceOnUse">
<stop stop-color="#0557A2"/>
<stop offset="1" stop-color="#65AFF4"/>
</linearGradient>
<linearGradient id="paint14_linear_87_47" x1="221.987" y1="94.2944" x2="221.987" y2="101.074" gradientUnits="userSpaceOnUse">
<stop stop-color="#0557A2"/>
<stop offset="1" stop-color="#65AFF4"/>
</linearGradient>
<linearGradient id="paint15_linear_87_47" x1="77.7453" y1="125.733" x2="77.7453" y2="132.481" gradientUnits="userSpaceOnUse">
<stop stop-color="#0557A2"/>
<stop offset="1" stop-color="#65AFF4"/>
</linearGradient>
<linearGradient id="paint16_linear_87_47" x1="148.63" y1="104.155" x2="148.63" y2="110.935" gradientUnits="userSpaceOnUse">
<stop stop-color="#0557A2"/>
<stop offset="1" stop-color="#65AFF4"/>
</linearGradient>
<linearGradient id="paint17_linear_87_47" x1="111.815" y1="104.163" x2="111.815" y2="110.911" gradientUnits="userSpaceOnUse">
<stop stop-color="#0557A2"/>
<stop offset="1" stop-color="#65AFF4"/>
</linearGradient>
<linearGradient id="paint18_linear_87_47" x1="68.2305" y1="94.3022" x2="68.2305" y2="101.05" gradientUnits="userSpaceOnUse">
<stop stop-color="#0557A2"/>
<stop offset="1" stop-color="#65AFF4"/>
</linearGradient>
<linearGradient id="paint19_linear_87_47" x1="183.927" y1="133.122" x2="183.927" y2="139.901" gradientUnits="userSpaceOnUse">
<stop stop-color="#0557A2"/>
<stop offset="1" stop-color="#65AFF4"/>
</linearGradient>
<linearGradient id="paint20_linear_87_47" x1="130.828" y1="99.2246" x2="130.828" y2="109.085" gradientUnits="userSpaceOnUse">
<stop stop-color="#0557A2"/>
<stop offset="1" stop-color="#65AFF4"/>
</linearGradient>
<clipPath id="clip0_87_47">
<rect width="264" height="176" fill="white"/>
</clipPath>
</defs>
</svg>
